<?xml version="1.0" encoding="utf-8"?>
<!-- Generator: Adobe Illustrator 24.1.1, SVG Export Plug-In . SVG Version: 6.00 Build 0)  -->
<svg version="1.1" id="Layer_1" xmlns="http://www.w3.org/2000/svg" xmlns:xlink="http://www.w3.org/1999/xlink" x="0px" y="0px"
	 viewBox="0 0 360 276.48" style="enable-background:new 0 0 360 276.48;" xml:space="preserve">
<style type="text/css">
	.st0{clip-path:url(#SVGID_2_);}
</style>
<g>
	<defs>
		<polygon id="SVGID_1_" points="180,8.75 12.03,263.46 347.97,263.46 		"/>
	</defs>
	<clipPath id="SVGID_2_">
		<use xlink:href="#SVGID_1_"  style="overflow:visible;"/>
	</clipPath>
	<path class="st0" d="M511.7,10.01l-0.16-0.25L346.62-240.53l-1.1-1.67L177.99,12.06h0L12.91,262.6h330.16h4.9h330.16L511.7,10.01z
		 M659.83,239.62c-11.02-0.61-47.69-5.11-86.58-37.44c-5.46-4.54-9.95-9.04-13.71-13.44c3.74,3.07,8.31,4.88,12.93,4.88
		c5.2,0,9.74-2.29,12.78-6.44c3.41-4.65,3.95-10.95,1.37-16.04c-0.78-1.54-1.78-2.84-2.92-3.85c0.92-0.17,1.93-0.27,3.04-0.27
		c5.37,0,11.12,2.42,17.07,7.19c11.72,9.39,46.43,52.2,51.25,58.17L659.83,239.62z M641.02,211.07
		c-12.32-14.73-28.19-33.08-35.54-38.97c-7.52-6.02-13.88-7.78-18.75-7.78c-1.09,0-2.08,0.11-3.02,0.26c-0.1,0.01-0.13,0-0.24,0.01
		c0,0-7.67,0.77-10.53,6.31c-1.1,2.13-1.55,6.4,1.34,7.42c-1.07-1.42-1.33-6.95,3.14-8.67c2.62-1.01,4.93-0.03,6.38,2.04
		c0.38,0.63,0.74,1.29,1,2.01c0,0.01,0,0.02,0.01,0.02c1.27,3.55,1.06,8.05-1.73,11.86c-2.7,3.68-6.57,5.34-10.62,5.34
		c-5.68,0-11.71-3.27-15.32-8.78c-7.45-11.37-5.04-30.84,9.37-39.46c4.5-2.69,9.63-3.58,14.45-3.58c5.65,0,10.81,1.21,14.07,2.18
		L641.02,211.07z M553.05,180.19c-8.15-12.35-10.59-23.5-10.84-31.85c-0.18-5.87,0.67-10.82,1.74-14.53
		c0.47,1.22,1.13,2.43,2.04,3.54c2.65,3.25,6.7,4.89,12.04,4.89c0.41,0,0.83-0.01,1.26-0.03c1.53-0.07,2.97-0.34,4.36-0.7
		c-6.22,4.28-10.67,10.69-12.45,18.44C549.6,166.91,550.32,174.2,553.05,180.19z M577.46,114.61l15.36,23.31
		c-3.25-0.78-7.38-1.49-11.84-1.49h0c-3.78,0-7.22,0.57-10.37,1.58c2.46-2,4.44-4.63,5.74-7.88
		C578.27,125.33,578.56,119.74,577.46,114.61z M567.72,99.83c-5.39-3.83-12.29-6.12-19.06-6.12c-12.77,0-24.23,7.56-32.28,21.29
		c-2.83,4.83-4.66,10.18-5.78,15.81c-1.12-5.62-2.95-10.98-5.78-15.81c-8.04-13.73-19.5-21.29-32.28-21.29
		c-6.79,0-13.7,2.3-19.1,6.15l57.14-86.72L567.72,99.83z M508.15,9.42h-89.44c11.08-3.44,19.25-11.69,24.86-24.98
		c10.89-25.77,8.31-51.1,5.59-64.54L508.15,9.42z M444.79-86.74c2.38,8.47,9.37,39.19-3.7,70.13C433.11,2.27,420.68,8.6,405.84,8.6
		c-0.07,0-0.14,0-0.21,0c-17.21-0.07-30.8-13.7-28.43-31.59c1.61-12.17,9.17-16.04,16.23-16.04c2.9,0,5.71,0.65,7.99,1.65
		c2.92,1.28,5.17,3.26,6.74,5.61c6.25,11.35-5.16,18.03-10.63,15.59c-2.84-1.08-3.85-3.72-3.26-6.45c-2.54,3.24-0.14,9.33,6.5,9.33
		c8.72,0,14.89-10.74,14.89-10.74c0,0,0,0,0,0c3.69-5.48,7.85-15.46,7.53-32.47c-0.63-33.46-12.18-69.52-22.13-96.56L444.79-86.74z
		 M394.69,9.42H375.6V-9.94c1.2,3.87,3.16,7.46,5.87,10.57C384.99,4.66,389.57,7.64,394.69,9.42z M420.51-56.47
		c0.31,16.38-3.71,25.86-7.12,30.92c-0.87-6.21-4.82-11.66-10.88-14.31c-2.77-1.21-5.99-1.87-9.07-1.87
		c-8.78,0-15.17,5.02-17.83,13.61v-102.52c1.96,1.6,4.48,2.72,7.6,2.72c5.55,0,10.92-2.97,14.02-7.74
		c1.55-2.39,3.38-6.71,2.84-12.89C409.88-122.31,419.85-91.68,420.51-56.47z M384.18-130.69c-5.95-0.17-8.31-4.34-8.98-7.44
		c-1.01-4.67,0.37-9.91,4.84-10.37c2.69-0.28,3.99,0.91,4.87,1.73c-0.53-2.24-2.69-3.57-5.07-3.57c-3.83,0-6.9,3.7-6.9,8.69v2.13
		c0-0.01-0.03-0.09-0.03-0.09V9.42h-25.83V-146.2c0-14.17,8.94-23.87,17.52-25.86c2.39-0.55,5.19-1.01,8.17-1.01
		c7.73,0,16.58,3.06,22.06,15.36C402.16-141.26,393.2-131.35,384.18-130.69z M345.52-237.4l45.86,69.6
		c-4.82-5.19-11.09-7.96-18.6-7.96c-2.75,0-5.7,0.36-8.78,1.08c-7.68,1.78-15.66,9.19-18.47,20.15
		c-2.82-10.96-10.79-18.37-18.47-20.15c-3.08-0.71-6.03-1.08-8.78-1.08c-7.51,0-13.78,2.76-18.6,7.95L345.52-237.4z M296.2-157.71
		c5.48-12.3,14.33-15.36,22.06-15.36c2.97,0,5.78,0.45,8.17,1.01c8.59,1.99,17.52,11.69,17.52,25.86V9.42h-25.83v-151.06
		c0-5-3.07-8.69-6.9-8.69c-2.38,0-4.55,1.34-5.07,3.57c0.88-0.83,2.18-2.01,4.87-1.73c4.48,0.46,5.85,5.7,4.84,10.37
		c-0.67,3.1-3.03,7.28-8.99,7.44C297.84-131.34,288.87-141.26,296.2-157.71z M293.8-135.66c3.1,4.77,8.47,7.74,14.02,7.74
		c3.13,0,5.64-1.12,7.6-2.72v102.52c-2.66-8.59-9.05-13.6-17.82-13.6c-3.08,0-6.3,0.67-9.07,1.87c-6.07,2.65-10.01,8.1-10.88,14.31
		c-3.41-5.06-7.43-14.54-7.12-30.93c0.63-33.44,10.38-65.39,20.53-92.91C290.25-142.76,292.19-138.15,293.8-135.66z M246.24-86.73
		l42.77-64.91c-9.97,26.84-20.52,60.1-21.17,95.12c-0.37,19.53,5.16,29.76,9.12,34.58c2.29,3.12,7.2,8.63,13.46,8.63
		c6.64,0,9.04-6.09,6.5-9.33c0.59,2.73-0.42,5.37-3.26,6.45c-5.47,2.45-16.9-4.25-10.62-15.61c0.11-0.2,0.18-0.34,0.27-0.52
		c1.54-2.11,3.62-3.9,6.31-5.07c2.28-1,5.1-1.65,7.99-1.65c7.06,0,14.61,3.87,16.23,16.04C316.2-5.1,302.62,8.53,285.41,8.6
		c-0.07,0-0.14,0-0.21,0c-14.84,0-27.27-6.32-35.25-25.21C236.91-47.45,243.84-78.14,246.24-86.73z M315.43-9.94V9.42H296.3
		c5.17-1.78,9.74-4.76,13.26-8.78C312.27-2.48,314.23-6.07,315.43-9.94z M241.87-80.1c-2.72,13.42-5.31,38.75,5.59,64.54
		c5.62,13.29,13.79,21.54,24.77,24.98h-89.35L241.87-80.1z M180.44,13.13l18.59,28.21h-21.67c-9.37,0-17.14,4.65-22.38,10.43
		L180.44,13.13z M150.65,64.78c1.9-8.67,12.44-20.79,26.71-20.79h23.41L217.91,70h-21.59c-0.03-0.01-0.02-0.02-0.08-0.02h-3.94
		c0,0-5.15,0-10.04,0c-4.89,0-8.5,3-8.5,6.75c0,2.33,1.31,4.45,3.5,4.96c-0.81-0.86-1.97-2.13-1.69-4.76
		c0.45-4.38,5.57-5.72,10.14-4.74c3.05,0.66,7.18,2.99,7.29,8.9c-0.32,6.93-5.32,14.03-18.3,14.03c-0.8,0-1.64-0.03-2.5-0.08
		C154.46,93.9,148.18,76.05,150.65,64.78z M219.64,72.64l20.23,30.71c-5.1-4.59-11.94-7.97-19.94-7.97H186.1
		c1.84-0.88,3.53-1.91,4.88-3.27c3.04-3.05,4.71-7.21,4.71-11.73c0-3.2-1.18-5.75-2.83-7.73H219.64z M149.38,60.27
		c-0.59,1.35-1.04,2.68-1.31,3.95c-1.7,7.77,0.39,17.03,5.32,23.59c2.57,3.42,5.85,5.89,9.57,7.57h-36.71L149.38,60.27z
		 M124.51,98.01h95.42c14.27,0,24.82,12.12,26.71,20.79c2.47,11.27-3.81,29.12-21.54,30.27c-0.87,0.06-1.7,0.08-2.5,0.08
		c-13.44,0-18.38-7.61-18.37-14.76c0-0.66,0.14-1.22,0.26-1.8c1.07-4.04,4.36-5.8,6.92-6.35c4.57-0.98,9.69,0.36,10.14,4.74
		c0.27,2.63-0.89,3.9-1.7,4.76c2.19-0.52,3.5-2.63,3.5-4.96c0-3.75-3.61-6.75-8.5-6.75h-1.58c0,0,0.01,0,0.01,0H107.37L124.51,98.01
		z M249.22,118.24c-0.09-0.39-0.21-0.8-0.33-1.2l22.29,33.83h-40.84c5.46-1.4,10.09-4.44,13.55-9.04
		C248.84,135.27,250.93,126.01,249.22,118.24z M105.64,126.66h98.8c-1.65,1.98-2.83,4.54-2.83,7.73c-0.01,4.52,1.67,8.69,4.71,11.73
		c2.29,2.3,5.4,3.83,9.03,4.74H104.5c-8.19,0-15.16,3.56-20.29,8.31L105.64,126.66z M77.79,174.3c1.9-8.67,12.44-20.79,26.71-20.79
		h168.42l17.14,26.02H123.41c-0.02,0-0.01-0.01-0.03-0.01h-3.94c0,0-5.15,0-10.04,0c-4.89,0-8.5,3-8.5,6.75
		c0,2.33,1.31,4.45,3.5,4.96c-0.81-0.86-1.97-2.13-1.69-4.76c0.45-4.38,5.57-5.72,10.14-4.74c3.06,0.66,7.2,2.99,7.29,8.94
		c0,0.01,0,0.01,0,0.01c-0.34,6.91-5.34,13.98-18.3,13.98c-0.8,0-1.64-0.03-2.5-0.08C81.6,203.42,75.32,185.57,77.79,174.3z
		 M291.8,182.15l21,31.88c-5.17-4.99-12.33-8.79-20.8-8.79H112.5c2.16-0.92,4.09-2.08,5.63-3.62c3.04-3.05,4.71-7.21,4.71-11.73
		c0-3.2-1.18-5.75-2.83-7.73H291.8z M75.63,172.2c-0.16,0.52-0.31,1.04-0.42,1.54c-1.7,7.77,0.39,17.03,5.32,23.59
		c2.77,3.68,6.36,6.27,10.46,7.92H53.86L75.63,172.2z M17.81,259.96l15.44-23.43h243.26c-1.65,1.98-2.83,4.54-2.83,7.73
		c-0.01,4.52,1.67,8.69,4.71,11.73c1.7,1.71,3.83,3.02,6.3,3.97H17.81z M294.68,259.02c-13.14,0-18.12-7.27-18.33-14.28
		c0.23-5.71,4.26-7.99,7.26-8.64c4.57-0.98,9.69,0.36,10.14,4.74c0.27,2.63-0.89,3.9-1.7,4.76c2.19-0.52,3.5-2.63,3.5-4.96
		c0-3.75-3.61-6.75-8.5-6.75c-4.89,0-10.04,0-10.04,0h-3.94c-0.01,0,0,0-0.01,0H34.98l17.14-26.02h239.88
		c14.27,0,24.82,12.12,26.71,20.79c2.47,11.27-3.81,29.12-21.54,30.27C296.32,258.99,295.49,259.02,294.68,259.02z M304.96,259.96
		c4.36-1.62,8.1-4.4,11.02-8.27c4.93-6.55,7.02-15.81,5.32-23.59c-0.15-0.68-0.35-1.38-0.59-2.08l22.36,33.94H304.96z
		 M345.52,258.88L182.89,12.06h325.26L358.14,239.72l-0.18,0l-0.04,0c0.03,0.08,0.04,0.16,0.06,0.25L345.52,258.88z M470.01,159.94
		c-1.78-7.74-6.23-14.16-12.45-18.44c1.39,0.36,2.83,0.63,4.36,0.7c0.43,0.02,0.85,0.03,1.26,0.03c5.34,0,9.39-1.64,12.04-4.89
		c0.9-1.11,1.56-2.32,2.04-3.54c1.06,3.71,1.91,8.67,1.74,14.53c-0.25,8.36-2.69,19.51-10.84,31.85
		C470.89,174.2,471.61,166.91,470.01,159.94z M464.07,182.15c-3.61,5.51-9.64,8.78-15.32,8.78c-4.05,0-7.92-1.66-10.62-5.34
		c-2.79-3.8-3-8.3-1.73-11.86c0-0.01,0-0.01,0.01-0.02c0.26-0.73,0.62-1.38,1-2.01c1.45-2.07,3.76-3.05,6.38-2.04
		c4.47,1.72,4.21,7.25,3.14,8.67c2.89-1.02,2.44-5.3,1.34-7.42c-2.85-5.53-10.53-6.31-10.53-6.31c-0.11-0.01-0.14-0.01-0.24-0.01
		c-0.94-0.15-1.93-0.26-3.02-0.26c-4.87,0-11.23,1.75-18.75,7.78c-7.37,5.91-23.3,24.33-35.62,39.06l46.04-69.88
		c3.24-0.97,8.41-2.18,14.08-2.18c4.82,0,9.96,0.89,14.45,3.58C469.1,151.31,471.52,170.78,464.07,182.15z M435.97,187.18
		c3.04,4.15,7.58,6.44,12.78,6.44c4.62,0,9.19-1.8,12.93-4.88c-3.76,4.41-8.25,8.9-13.71,13.44c-38.8,32.26-75.47,36.82-86.6,37.44
		l4.7-7.13c4.4-5.46,39.54-48.83,51.35-58.29c5.95-4.77,11.7-7.19,17.07-7.19c1.11,0,2.13,0.1,3.04,0.27
		c-1.14,1.01-2.14,2.31-2.92,3.85C432.02,176.23,432.55,182.53,435.97,187.18z M440.24,136.43L440.24,136.43
		c-4.48,0-8.62,0.71-11.86,1.49l15.39-23.35c-1.11,5.15-0.82,10.75,1.1,15.56c1.3,3.25,3.28,5.88,5.74,7.88
		C447.46,137,444.02,136.43,440.24,136.43z M347.97,259.96l11.59-17.59c10.57-0.47,49.74-4.55,90.12-38.13
		c34.63-28.79,34.21-57.14,30.15-71.14c-0.01-0.04-0.01-0.05-0.02-0.09c0,0-0.65-2.86-2.31-5.94c-0.65-1.27-1.26-2.18-1.72-2.64
		c-1.34-1.75-3.03-3.34-5.25-4.21c-3.22-1.27-6.94-0.45-8.08,1.97c1.37-0.67,7.36-3.09,10.72,4.43c2.26,5.07-0.54,10.83-5.96,12.46
		c-1.19,0.27-2.49,0.46-4.02,0.46c-0.37,0-0.75-0.01-1.14-0.03c-18.19-0.84-20.18-24.44-10.67-34.4c4.7-4.92,12.53-8.73,21.17-8.73
		c10.1,0,21.32,5.21,29.96,19.96c16.03,27.37,0.73,72.95-17.14,94.31c-21.42,25.61-48.35,42.64-64.93,49.3H347.97z M427,259.96
		c16.56-7.83,40.48-23.72,60.44-47.58c10.08-12.05,19.72-32.24,23.17-52.75c3.45,20.51,13.09,40.7,23.17,52.75
		c19.89,23.77,43.78,39.7,60.35,47.58H427z M535.83,210.66c-17.87-21.36-33.17-66.94-17.14-94.31
		c8.64-14.75,19.86-19.96,29.96-19.96c8.64,0,16.47,3.81,21.17,8.73c9.52,9.96,7.53,33.56-10.67,34.4
		c-0.39,0.02-0.77,0.03-1.14,0.03c-1.53,0-2.83-0.19-4.02-0.46c-5.42-1.64-8.22-7.39-5.96-12.46c3.36-7.53,9.34-5.11,10.72-4.43
		c-1.14-2.43-4.86-3.25-8.08-1.97c-2.22,0.88-3.91,2.47-5.25,4.21c-0.46,0.46-1.07,1.37-1.73,2.64c-1.66,3.08-2.31,5.93-2.31,5.93
		c-0.01,0.04-0.01,0.05-0.02,0.09c-4.06,14-4.48,42.35,30.15,71.14c41.99,34.91,81.64,37.91,90.12,38.14l11.58,17.57h-72.51
		C584.13,253.28,557.22,236.23,535.83,210.66z"/>
</g>
</svg>
