<?xml version="1.0" encoding="utf-8"?>
<!-- Generator: Adobe Illustrator 24.1.1, SVG Export Plug-In . SVG Version: 6.00 Build 0)  -->
<svg version="1.1" id="Artwork" xmlns="http://www.w3.org/2000/svg" xmlns:xlink="http://www.w3.org/1999/xlink" x="0px" y="0px"
	 viewBox="0 0 659.52 213.12" style="enable-background:new 0 0 659.52 213.12;" xml:space="preserve">
<style type="text/css">
	.st0{fill:#9E0B0F;}
	.st1{fill:#FFFFFF;}
</style>
<g>
	<rect x="146.46" y="44.9" class="st0" width="46.23" height="12.01"/>
</g>
<g>
	<polygon class="st1" points="28.61,177.77 26.4,172.42 25.33,172.42 25.33,180.61 26.43,180.61 26.43,175.11 28.21,179.43 
		29,179.43 30.79,174.98 30.79,180.61 31.89,180.61 31.89,172.42 30.83,172.42 	"/>
	<path class="st1" d="M44.87,172.42l-2.75,8.19h1.22l0.55-1.78h2.93l0.55,1.78h1.23l-2.75-8.19H44.87z M44.23,177.75l1.14-3.7
		l1.13,3.7H44.23z"/>
	<path class="st1" d="M62.53,177.96c0,0.52-0.13,0.91-0.39,1.2c-0.26,0.28-0.63,0.42-1.11,0.42c-0.48,0-0.84-0.14-1.1-0.42
		c-0.26-0.29-0.39-0.68-0.39-1.2v-5.54h-1.14v5.5c0,0.58,0.1,1.09,0.31,1.5c0.21,0.42,0.51,0.74,0.9,0.95
		c0.39,0.22,0.87,0.32,1.42,0.32c0.56,0,1.04-0.11,1.43-0.32c0.39-0.22,0.69-0.53,0.9-0.95c0.21-0.42,0.31-0.92,0.31-1.5v-5.5h-1.14
		V177.96z"/>
	<path class="st1" d="M78.64,176.88c0.35-0.18,0.61-0.45,0.8-0.79c0.19-0.35,0.28-0.74,0.28-1.2v-0.23c0-0.45-0.09-0.84-0.28-1.18
		c-0.19-0.34-0.45-0.6-0.8-0.78c-0.35-0.19-0.75-0.28-1.22-0.28h-1.8H75h-0.5v8.2h1.13v-3.46h1.51l1.59,3.46h1.32L78.31,177
		C78.42,176.96,78.54,176.93,78.64,176.88z M75.63,173.5h1.85c0.21,0,0.4,0.05,0.56,0.15c0.16,0.1,0.28,0.23,0.37,0.42
		c0.09,0.18,0.13,0.39,0.13,0.62v0.2c0,0.24-0.04,0.45-0.13,0.62c-0.09,0.18-0.21,0.32-0.37,0.41c-0.16,0.1-0.34,0.14-0.55,0.14
		h-1.85V173.5z"/>
	<rect x="90.68" y="172.42" class="st1" width="1.14" height="8.19"/>
	<path class="st1" d="M117.05,172.42l-2.75,8.19h1.22l0.55-1.78h2.93l0.55,1.78h1.23l-2.75-8.19H117.05z M116.41,177.75l1.14-3.7
		l1.13,3.7H116.41z"/>
	<polygon class="st1" points="129.91,173.51 132.01,173.51 132.01,180.61 133.15,180.61 133.15,173.51 135.25,173.51 135.25,172.42 
		129.91,172.42 	"/>
	<path class="st1" d="M149.34,177.96c0,0.52-0.13,0.91-0.39,1.2c-0.26,0.28-0.63,0.42-1.11,0.42c-0.48,0-0.84-0.14-1.1-0.42
		c-0.26-0.29-0.39-0.68-0.39-1.2v-5.54h-1.14v5.5c0,0.58,0.1,1.09,0.31,1.5c0.21,0.42,0.51,0.74,0.9,0.95
		c0.39,0.22,0.87,0.32,1.42,0.32c0.56,0,1.04-0.11,1.43-0.32c0.39-0.22,0.69-0.53,0.9-0.95c0.21-0.42,0.31-0.92,0.31-1.5v-5.5h-1.14
		V177.96z"/>
	<path class="st1" d="M163.13,172.42l-2.75,8.19h1.22l0.55-1.78h2.93l0.55,1.78h1.23l-2.75-8.19H163.13z M162.49,177.75l1.14-3.7
		l1.13,3.7H162.49z"/>
	<rect x="189.28" y="177.14" class="st1" width="3.57" height="1.08"/>
	<polygon class="st1" points="219.19,177.77 216.98,172.42 215.91,172.42 215.91,180.61 217.01,180.61 217.01,175.11 218.8,179.43 
		219.58,179.43 221.38,174.98 221.38,180.61 222.47,180.61 222.47,172.42 221.41,172.42 	"/>
	<path class="st1" d="M235.46,172.42l-2.75,8.19h1.22l0.55-1.78h2.93l0.55,1.78h1.23l-2.75-8.19H235.46z M234.81,177.75l1.14-3.7
		l1.13,3.7H234.81z"/>
	<path class="st1" d="M253.11,177.96c0,0.52-0.13,0.91-0.39,1.2c-0.26,0.28-0.63,0.42-1.11,0.42c-0.48,0-0.84-0.14-1.1-0.42
		c-0.26-0.29-0.39-0.68-0.39-1.2v-5.54h-1.14v5.5c0,0.58,0.1,1.09,0.31,1.5c0.21,0.42,0.51,0.74,0.9,0.95
		c0.39,0.22,0.87,0.32,1.42,0.32c0.56,0,1.04-0.11,1.43-0.32c0.39-0.22,0.69-0.53,0.9-0.95c0.21-0.42,0.31-0.92,0.31-1.5v-5.5h-1.14
		V177.96z"/>
	<path class="st1" d="M269.22,176.88c0.35-0.18,0.61-0.45,0.8-0.79c0.19-0.35,0.28-0.74,0.28-1.2v-0.23c0-0.45-0.09-0.84-0.28-1.18
		c-0.19-0.34-0.45-0.6-0.8-0.78c-0.35-0.19-0.75-0.28-1.22-0.28h-1.8h-0.63h-0.5v8.2h1.13v-3.46h1.51l1.59,3.46h1.32l-1.73-3.61
		C269.01,176.96,269.12,176.93,269.22,176.88z M266.21,173.5h1.85c0.21,0,0.4,0.05,0.56,0.15c0.16,0.1,0.28,0.23,0.37,0.42
		c0.09,0.18,0.13,0.39,0.13,0.62v0.2c0,0.24-0.04,0.45-0.13,0.62c-0.09,0.18-0.21,0.32-0.37,0.41c-0.16,0.1-0.34,0.14-0.55,0.14
		h-1.85V173.5z"/>
	<rect x="281.26" y="172.42" class="st1" width="1.14" height="8.19"/>
	<polygon class="st1" points="311.08,178.8 309.56,172.42 308.77,172.42 307.25,178.8 305.98,172.42 304.81,172.42 306.6,180.61 
		307.78,180.61 309.2,174.93 310.55,180.61 311.73,180.61 313.51,172.42 312.34,172.42 	"/>
	<polygon class="st1" points="328.03,176.04 324.99,176.04 324.99,172.42 323.85,172.42 323.85,180.61 324.99,180.61 324.99,177.12 
		328.03,177.12 328.03,180.61 329.16,180.61 329.16,172.42 328.03,172.42 	"/>
	<polygon class="st1" points="340.76,172.42 340.2,172.42 340.2,180.61 340.76,180.61 341.34,180.61 345.04,180.61 345.04,179.53 
		341.34,179.53 341.34,177.09 344.51,177.09 344.51,176.01 341.34,176.01 341.34,173.51 345.04,173.51 345.04,172.42 341.34,172.42 
			"/>
	<polygon class="st1" points="360.16,178.48 356.74,172.42 355.72,172.42 355.72,180.61 356.83,180.61 356.83,174.67 360.24,180.61 
		361.28,180.61 361.28,172.42 360.16,172.42 	"/>
	<path class="st1" d="M376.35,177.96c0,0.52-0.13,0.91-0.39,1.2c-0.26,0.28-0.63,0.42-1.11,0.42c-0.48,0-0.84-0.14-1.1-0.42
		c-0.26-0.29-0.39-0.68-0.39-1.2v-5.54h-1.14v5.5c0,0.58,0.1,1.09,0.31,1.5c0.21,0.42,0.51,0.74,0.9,0.95
		c0.39,0.22,0.87,0.32,1.42,0.32c0.56,0,1.04-0.11,1.43-0.32c0.39-0.22,0.69-0.53,0.9-0.95c0.21-0.42,0.31-0.92,0.31-1.5v-5.5h-1.14
		V177.96z"/>
	<path class="st1" d="M390.15,172.42l-2.75,8.19h1.22l0.55-1.78h2.93l0.55,1.78h1.23l-2.75-8.19H390.15z M389.51,177.75l1.14-3.7
		l1.13,3.7H389.51z"/>
	<rect x="416.29" y="177.14" class="st1" width="3.57" height="1.08"/>
	<polygon class="st1" points="446.2,177.77 444,172.42 442.93,172.42 442.93,180.61 444.02,180.61 444.02,175.11 445.81,179.43 
		446.59,179.43 448.39,174.98 448.39,180.61 449.48,180.61 449.48,172.42 448.43,172.42 	"/>
	<path class="st1" d="M462.47,172.42l-2.75,8.19h1.22l0.55-1.78h2.93l0.55,1.78h1.23l-2.75-8.19H462.47z M461.82,177.75l1.14-3.7
		l1.13,3.7H461.82z"/>
	<path class="st1" d="M480.13,177.96c0,0.52-0.13,0.91-0.39,1.2c-0.26,0.28-0.63,0.42-1.11,0.42c-0.48,0-0.84-0.14-1.1-0.42
		c-0.26-0.29-0.39-0.68-0.39-1.2v-5.54h-1.14v5.5c0,0.58,0.1,1.09,0.31,1.5c0.21,0.42,0.51,0.74,0.9,0.95
		c0.39,0.22,0.87,0.32,1.42,0.32c0.56,0,1.04-0.11,1.43-0.32c0.39-0.22,0.69-0.53,0.9-0.95c0.21-0.42,0.31-0.92,0.31-1.5v-5.5h-1.14
		V177.96z"/>
	<path class="st1" d="M496.24,176.88c0.35-0.18,0.61-0.45,0.8-0.79c0.19-0.35,0.28-0.74,0.28-1.2v-0.23c0-0.45-0.09-0.84-0.28-1.18
		c-0.19-0.34-0.45-0.6-0.8-0.78c-0.35-0.19-0.75-0.28-1.22-0.28h-1.8h-0.63h-0.5v8.2h1.13v-3.46h1.51l1.59,3.46h1.32l-1.73-3.61
		C496.02,176.96,496.14,176.93,496.24,176.88z M493.22,173.5h1.85c0.21,0,0.4,0.05,0.56,0.15c0.16,0.1,0.28,0.23,0.37,0.42
		c0.09,0.18,0.13,0.39,0.13,0.62v0.2c0,0.24-0.04,0.45-0.13,0.62c-0.09,0.18-0.21,0.32-0.37,0.41c-0.16,0.1-0.34,0.14-0.55,0.14
		h-1.85V173.5z"/>
	<rect x="508.28" y="172.42" class="st1" width="1.14" height="8.19"/>
	<polygon class="st1" points="531.6,173.51 533.7,173.51 533.7,180.61 534.85,180.61 534.85,173.51 536.95,173.51 536.95,172.42 
		531.6,172.42 	"/>
	<path class="st1" d="M548.77,172.42l-2.75,8.19h1.22l0.55-1.78h2.93l0.55,1.78h1.23l-2.75-8.19H548.77z M548.13,177.75l1.14-3.7
		l1.13,3.7H548.13z"/>
	<polygon class="st1" points="567.29,178.48 563.87,172.42 562.85,172.42 562.85,180.61 563.96,180.61 563.96,174.67 567.37,180.61 
		568.41,180.61 568.41,172.42 567.29,172.42 	"/>
	<path class="st1" d="M582.02,177.28h1.48v0.6c0,0.35-0.06,0.65-0.19,0.91c-0.12,0.26-0.3,0.45-0.52,0.59
		c-0.22,0.13-0.48,0.2-0.79,0.2c-0.31,0-0.58-0.06-0.81-0.19c-0.23-0.13-0.41-0.3-0.53-0.54c-0.13-0.23-0.19-0.51-0.19-0.82v-2.86
		c0-0.34,0.06-0.65,0.18-0.9c0.13-0.26,0.3-0.46,0.52-0.6c0.22-0.14,0.49-0.21,0.79-0.21c0.23,0,0.43,0.05,0.63,0.15
		c0.19,0.1,0.36,0.26,0.49,0.45c0.13,0.2,0.23,0.44,0.27,0.72h1.22c-0.06-0.5-0.21-0.94-0.45-1.3c-0.23-0.37-0.54-0.65-0.91-0.84
		c-0.37-0.19-0.79-0.29-1.26-0.29c-0.54,0-1.01,0.12-1.41,0.35c-0.4,0.23-0.71,0.56-0.92,0.99c-0.22,0.42-0.32,0.92-0.32,1.49v2.86
		c0,0.54,0.11,1.01,0.33,1.41c0.22,0.4,0.53,0.71,0.94,0.93c0.4,0.22,0.88,0.33,1.42,0.33c0.53,0,1-0.12,1.4-0.35
		c0.4-0.23,0.71-0.56,0.92-0.99c0.21-0.43,0.32-0.93,0.32-1.5v-1.67h-2.63V177.28z"/>
	<path class="st1" d="M597.29,172.42l-2.75,8.19h1.22l0.55-1.78h2.93l0.55,1.78h1.23l-2.75-8.19H597.29z M596.64,177.75l1.14-3.7
		l1.13,3.7H596.64z"/>
	<polygon class="st1" points="610.14,173.51 612.24,173.51 612.24,180.61 613.39,180.61 613.39,173.51 615.49,173.51 615.49,172.42 
		610.14,172.42 	"/>
	<path class="st1" d="M629.81,180.61h1.23l-2.75-8.19h-0.98l-2.75,8.19h1.22l0.55-1.78h2.93L629.81,180.61z M626.67,177.75l1.14-3.7
		l1.13,3.7H626.67z"/>
</g>
<g>
	<path class="st1" d="M73.08,44.94h-15.2V64.4h-6.77v13.53h6.77v35.96c0,5.84,1.32,10.26,3.96,13.24c2.64,2.99,6.8,4.48,12.47,4.48
		h7.93v-14.69h-5.16c-1.25,0-2.22-0.45-2.93-1.35c-0.71-0.9-1.07-2.15-1.07-3.74V77.93h9.15V64.4h-9.15V44.94z"/>
	<path class="st1" d="M180.8,66.14c-3.78-1.85-8.36-2.77-13.72-2.77c-5.46,0-10.23,1.06-14.3,3.19c-4.08,2.13-7.13,5.1-9.15,8.93
		l11.21,6.7c1.42-1.68,3.2-2.96,5.35-3.87c2.15-0.9,4.45-1.35,6.9-1.35c3.56,0,6.31,0.91,8.25,2.74c1.93,1.83,2.9,4.42,2.9,7.77
		v4.12H163.6c-7.56,0-13.25,1.7-17.08,5.09c-3.82,3.39-5.73,8.49-5.73,15.27c0,6.79,1.78,11.87,5.35,15.24
		c3.56,3.37,8.85,5.06,15.85,5.06c3.01,0,5.74-0.41,8.18-1.23c2.45-0.81,4.49-2.03,6.12-3.64c0.77-0.76,1.41-1.61,1.94-2.54v6.44
		h14.24V87.02c0-4.98-1-9.25-3-12.79C187.47,70.69,184.58,67.99,180.8,66.14z M175,117.95c-2.15,1.16-5.37,1.74-9.66,1.74
		c-3.52,0-6.13-0.62-7.83-1.87c-1.7-1.25-2.55-3.2-2.55-5.87c0-2.79,0.74-4.87,2.22-6.25c1.48-1.38,3.68-2.07,6.61-2.07h14.43v9.02
		C178.23,115.03,177.15,116.79,175,117.95z"/>
	<path class="st1" d="M287.49,63.37c-3.95,0-7.39,1.07-10.31,3.22c-2.27,1.67-4.22,3.96-5.86,6.84V64.4h-15.33v66.88h15.33V88.69
		c0-3.52,0.9-6.2,2.71-8.05c1.81-1.84,4.38-2.77,7.73-2.77c3.52,0,6.21,0.98,8.05,2.93c1.85,1.96,2.77,4.76,2.77,8.41v42.07h15.33
		V88.31c0-7.94-1.79-14.09-5.38-18.43C298.95,65.54,293.94,63.37,287.49,63.37z"/>
	<rect x="370.86" y="64.4" class="st1" width="15.2" height="66.88"/>
	<rect x="370.86" y="37.66" class="st1" width="15.2" height="15.33"/>
	<polygon class="st1" points="503.38,64.4 486.76,64.4 464.27,95.24 464.27,37.6 449,37.6 449,131.29 464.27,131.29 464.27,114.93 
		474.27,102.01 489.46,131.29 506.47,131.29 483.77,89.74 	"/>
	<path class="st1" d="M608.56,75.45c-2.04-3.93-5.03-6.93-8.96-8.99c-3.93-2.06-8.65-3.09-14.14-3.09c-5.54,0-10.28,1.03-14.2,3.09
		c-3.93,2.06-6.93,5.06-8.99,8.99c-2.06,3.93-3.09,8.69-3.09,14.27v15.85c0,5.67,1.03,10.49,3.09,14.46c2.07,3.97,5.06,7,8.99,9.08
		c3.93,2.09,8.66,3.13,14.2,3.13c5.5,0,10.21-1.03,14.14-3.09c3.93-2.06,6.91-5.07,8.96-9.02c2.04-3.95,3.06-8.74,3.06-14.37V89.73
		C611.62,84.14,610.6,79.38,608.56,75.45z M596.35,105.58c0,3.82-0.94,6.8-2.83,8.92c-1.89,2.13-4.62,3.19-8.18,3.19
		c-3.44,0-6.11-1.07-8.02-3.19c-1.91-2.13-2.87-5.1-2.87-8.92V89.92c0-3.82,0.96-6.78,2.87-8.86c1.91-2.08,4.58-3.13,8.02-3.13
		c3.56,0,6.29,1.04,8.18,3.13c1.89,2.08,2.83,5.04,2.83,8.86V105.58z"/>
</g>
</svg>
