<svg id="Layer_1" data-name="Layer 1" xmlns="http://www.w3.org/2000/svg" viewBox="0 0 850.39 850.39"><defs><style>.cls-1{fill:#fff;}</style></defs><g id="Artwork"><path class="cls-1" d="M564.9,425l-.14-.21L426.13,214.43l-.93-1.4L284.37,426.75h0L145.6,637.36H704.79Zm124.52,193c-9.27-.51-40.09-4.29-72.78-31.47a94.85,94.85,0,0,1-11.53-11.3,17.29,17.29,0,0,0,10.87,4.1,13.11,13.11,0,0,0,11.9-18.9,10.88,10.88,0,0,0-2.46-3.24A14.24,14.24,0,0,1,628,557c4.52,0,9.34,2,14.35,6,9.84,7.89,39,43.88,43.08,48.9Zm-15.81-24c-10.36-12.38-23.69-27.81-29.87-32.76s-11.67-6.54-15.76-6.54a15.4,15.4,0,0,0-2.54.22h-.2s-6.45.65-8.85,5.3c-.92,1.79-1.3,5.38,1.13,6.24-.9-1.2-1.12-5.84,2.64-7.29a4.33,4.33,0,0,1,5.36,1.72,9.51,9.51,0,0,1,.84,1.69v0A10.86,10.86,0,0,1,616,577.12a15.94,15.94,0,0,1-12.88-7.38c-6.26-9.56-4.23-25.92,7.88-33.17a23.54,23.54,0,0,1,12.15-3A42.25,42.25,0,0,1,635,535.4Zm-74-26c-6.85-10.38-8.9-19.75-9.11-26.78A40.29,40.29,0,0,1,592,529.09a10.93,10.93,0,0,0,1.71,3c2.23,2.73,5.63,4.11,10.12,4.11l1.06,0a17.37,17.37,0,0,0,3.67-.59,25.59,25.59,0,0,0-10.47,15.5A27,27,0,0,0,599.66,568.09ZM620.17,513l12.91,19.59a42.88,42.88,0,0,0-10-1.25h0a28.33,28.33,0,0,0-8.72,1.33,16.39,16.39,0,0,0,4.84-6.62A22.82,22.82,0,0,0,620.17,513ZM612,500.54a28.24,28.24,0,0,0-16-5.15c-10.74,0-20.37,6.36-27.13,17.9A42.72,42.72,0,0,0,564,526.58a42.23,42.23,0,0,0-4.86-13.29c-6.76-11.54-16.39-17.9-27.13-17.9a28.1,28.1,0,0,0-16,5.17l48-72.9Zm-50.07-76H486.73c9.31-2.9,16.18-9.83,20.9-21,9.16-21.67,7-43,4.7-54.25Zm-53.26-80.83c2,7.12,7.88,32.94-3.11,59-6.71,15.88-17.15,21.19-29.63,21.19h-.18c-14.47-.06-25.89-11.51-23.89-26.56,1.36-10.23,7.71-13.48,13.64-13.48a17.07,17.07,0,0,1,6.72,1.39,13,13,0,0,1,5.67,4.72c5.25,9.54-4.34,15.16-8.94,13.1a4.45,4.45,0,0,1-2.74-5.42c-2.14,2.72-.12,7.84,5.46,7.84,7.33,0,12.52-9,12.52-9h0c3.11-4.6,6.6-13,6.33-27.29C490,341,480.26,310.68,471.9,288Zm-42.11,80.83h-16V408.27a24.32,24.32,0,0,0,4.94,8.89A26,26,0,0,0,466.54,424.54Zm21.7-55.39c.26,13.77-3.12,21.74-6,26a15.39,15.39,0,0,0-9.15-12,19.41,19.41,0,0,0-7.63-1.58c-7.38,0-12.75,4.22-15,11.44V306.79a9.92,9.92,0,0,0,6.39,2.29,14.24,14.24,0,0,0,11.79-6.51A17,17,0,0,0,471,291.74C479.31,313.81,487.69,339.55,488.24,369.15ZM457.7,306.76a7.56,7.56,0,0,1-7.55-6.25c-.85-3.93.31-8.33,4.07-8.72a4.63,4.63,0,0,1,4.09,1.46,4.17,4.17,0,0,0-4.27-3c-3.22,0-5.8,3.11-5.8,7.31v1.79a.64.64,0,0,0,0-.07V424.55H426.5V293.72c0-11.91,7.51-20.07,14.73-21.74a30.94,30.94,0,0,1,6.87-.85c6.5,0,13.94,2.57,18.55,12.91C472.82,297.87,465.29,306.2,457.7,306.76Zm-32.5-89.71,38.55,58.5a20.58,20.58,0,0,0-15.65-6.69,32.87,32.87,0,0,0-7.38.9c-6.46,1.5-13.16,7.73-15.53,16.94-2.37-9.21-9.07-15.44-15.53-16.94a32.87,32.87,0,0,0-7.38-.9,20.56,20.56,0,0,0-15.63,6.68Zm-41.45,67c4.61-10.34,12.05-12.91,18.55-12.91a30.37,30.37,0,0,1,6.87.85c7.22,1.67,14.73,9.83,14.73,21.74V424.54H402.18v-127c0-4.2-2.58-7.31-5.8-7.31a4.19,4.19,0,0,0-4.27,3,4.67,4.67,0,0,1,4.09-1.46c3.76.39,4.91,4.79,4.07,8.72a7.56,7.56,0,0,1-7.56,6.26C385.12,306.21,377.58,297.88,383.75,284Zm-2,18.54a14.25,14.25,0,0,0,11.79,6.51,9.87,9.87,0,0,0,6.39-2.29V393c-2.23-7.22-7.6-11.44-15-11.44a19.44,19.44,0,0,0-7.63,1.58,15.41,15.41,0,0,0-9.15,12c-2.86-4.25-6.25-12.22-6-26,.53-28.11,8.72-55,17.26-78.11A17.13,17.13,0,0,0,381.73,302.58Zm-40,41.13,35.95-54.56c-8.38,22.56-17.25,50.52-17.8,80-.31,16.42,4.34,25,7.67,29.07,1.93,2.62,6.05,7.25,11.32,7.25,5.58,0,7.6-5.12,5.46-7.84a4.43,4.43,0,0,1-2.74,5.42c-4.6,2.06-14.2-3.57-8.93-13.12l.23-.44a12.88,12.88,0,0,1,5.3-4.26,17.07,17.07,0,0,1,6.72-1.39c5.93,0,12.28,3.25,13.64,13.48,2,15-9.42,26.5-23.89,26.56h-.18c-12.48,0-22.92-5.32-29.63-21.19C333.9,376.73,339.73,350.93,341.75,343.71Zm58.16,64.56v16.27H383.83A25.78,25.78,0,0,0,395,417.16,24.46,24.46,0,0,0,399.91,408.27Zm-61.83-59c-2.29,11.29-4.47,32.58,4.7,54.26,4.72,11.17,11.59,18.11,20.83,21H288.5Zm-51.65,78.38,15.63,23.72H283.85A25.59,25.59,0,0,0,265,460.14Zm-25,43.41c1.6-7.29,10.46-17.48,22.46-17.48h19.68l14.41,21.87H288c-4.11,0-7.15,2.52-7.15,5.67a4.08,4.08,0,0,0,2.94,4.17,4.53,4.53,0,0,1-1.42-4c.38-3.68,4.69-4.81,8.53-4a7.39,7.39,0,0,1,6.13,7.48c-.27,5.83-4.47,11.8-15.39,11.8-.68,0-1.38,0-2.1-.07C264.59,495.55,259.31,480.55,261.39,471.07Zm58,6.61,17,25.81a25,25,0,0,0-16.76-6.7H291.2a14.65,14.65,0,0,0,4.11-2.75,13.82,13.82,0,0,0,3.95-9.86,9.86,9.86,0,0,0-2.38-6.5Zm-59.06-10.4a18.42,18.42,0,0,0-1.1,3.32,25.4,25.4,0,0,0,4.47,19.83,20.32,20.32,0,0,0,8.05,6.36H240.88ZM239.42,499h80.21c12,0,20.85,10.19,22.45,17.48,2.08,9.48-3.2,24.48-18.11,25.45-.73,0-1.43.07-2.1.07-11.3,0-15.45-6.4-15.44-12.41a7.23,7.23,0,0,1,.22-1.51,7.4,7.4,0,0,1,5.82-5.34c3.84-.83,8.15.3,8.53,4a4.53,4.53,0,0,1-1.42,4,4.08,4.08,0,0,0,2.94-4.17c0-3.15-3-5.67-7.15-5.67H225Zm104.84,17c-.07-.33-.18-.67-.28-1l18.74,28.44H328.39a20.36,20.36,0,0,0,11.39-7.6A25.36,25.36,0,0,0,344.26,516Zm-120.71,7.08H306.6a9.91,9.91,0,0,0-2.38,6.5,13.79,13.79,0,0,0,4,9.86,16.1,16.1,0,0,0,7.59,4H222.6a25.14,25.14,0,0,0-17.06,7Zm-23.41,40c1.6-7.29,10.46-17.48,22.46-17.48H364.18l14.41,21.87H226.71c-4.11,0-7.15,2.52-7.15,5.67a4.08,4.08,0,0,0,2.94,4.17,4.53,4.53,0,0,1-1.42-4c.38-3.68,4.69-4.81,8.53-4a7.4,7.4,0,0,1,6.13,7.51h0c-.29,5.81-4.49,11.75-15.38,11.75-.68,0-1.38,0-2.1-.07C203.35,587.62,198.07,572.61,200.14,563.14Zm179.91,6.6,17.66,26.8a25.18,25.18,0,0,0-17.48-7.39H229.33a14.79,14.79,0,0,0,4.73-3,13.79,13.79,0,0,0,4-9.86,9.91,9.91,0,0,0-2.38-6.5H380.05Zm-181.72-8.37c-.13.44-.26.87-.35,1.29a25.4,25.4,0,0,0,4.47,19.83,20.32,20.32,0,0,0,8.79,6.66H180Zm-48.61,73.78,13-19.7H367.19a9.86,9.86,0,0,0-2.38,6.5,13.78,13.78,0,0,0,3.95,9.86,15,15,0,0,0,5.3,3.34Zm232.75-.79c-11.05,0-15.23-6.11-15.4-12a7.38,7.38,0,0,1,6.11-7.26c3.84-.83,8.15.3,8.53,4a4.53,4.53,0,0,1-1.42,4,4.08,4.08,0,0,0,2.94-4.17c0-3.15-3-5.67-7.15-5.67H164.16l14.41-21.87H380.22c12,0,20.86,10.19,22.46,17.48,2.07,9.48-3.21,24.48-18.11,25.45C383.84,634.34,383.14,634.36,382.47,634.36Zm8.64.79a20.4,20.4,0,0,0,9.26-6.95,25.35,25.35,0,0,0,4.47-19.83,15.47,15.47,0,0,0-.5-1.75l18.8,28.53Zm34.09-.91L288.49,426.75H561.91L435.81,618.13h-.18a.8.8,0,0,1,.05.21Zm104.66-83.17a25.51,25.51,0,0,0-10.47-15.5,17.37,17.37,0,0,0,3.67.59c.36,0,.72,0,1.06,0,4.49,0,7.89-1.38,10.12-4.11a10.93,10.93,0,0,0,1.71-3,40.25,40.25,0,0,1,1.46,12.22c-.21,7-2.26,16.4-9.11,26.78A27.06,27.06,0,0,0,529.86,551.07Zm-5,18.67A15.94,15.94,0,0,1,512,577.12a10.86,10.86,0,0,1-10.38-14.46v0a9.51,9.51,0,0,1,.84-1.69,4.34,4.34,0,0,1,5.36-1.72c3.76,1.45,3.53,6.09,2.64,7.29,2.43-.86,2.05-4.45,1.13-6.24-2.4-4.65-8.85-5.3-8.85-5.3h-.2a15.4,15.4,0,0,0-2.54-.22c-4.09,0-9.44,1.48-15.76,6.54s-19.58,20.45-29.94,32.84L493,535.39a42.57,42.57,0,0,1,11.84-1.83,23.54,23.54,0,0,1,12.15,3C529.09,543.82,531.11,560.18,524.86,569.74ZM501.23,574A13,13,0,0,0,512,579.38a17.32,17.32,0,0,0,10.87-4.1,94.12,94.12,0,0,1-11.53,11.3c-32.62,27.12-63.44,30.95-72.8,31.48l4-6c3.7-4.59,33.24-41,43.16-49,5-4,9.83-6,14.35-6a14.33,14.33,0,0,1,2.56.23,10.88,10.88,0,0,0-2.46,3.24A13.07,13.07,0,0,0,501.23,574Zm3.6-42.67h0a42.85,42.85,0,0,0-10,1.25l12.93-19.63a22.75,22.75,0,0,0,.93,13.08,16.12,16.12,0,0,0,4.83,6.62A28.63,28.63,0,0,0,504.83,531.3ZM427.26,635.15,437,620.37c8.89-.4,41.81-3.82,75.76-32,29.1-24.2,28.76-48,25.34-59.8a.19.19,0,0,1,0-.08,21.26,21.26,0,0,0-1.94-5,9.56,9.56,0,0,0-1.45-2.22,10.58,10.58,0,0,0-4.41-3.54c-2.71-1.07-5.84-.38-6.78,1.66,1.15-.57,6.19-2.6,9,3.73a7.69,7.69,0,0,1-5,10.48,14.81,14.81,0,0,1-3.38.39l-1,0c-15.28-.71-17-20.54-9-28.92a25.18,25.18,0,0,1,17.8-7.34c8.48,0,17.91,4.38,25.17,16.78,13.48,23,.62,61.32-14.4,79.28-18,21.53-40.64,35.84-54.58,41.44H427.26Zm66.44,0c13.91-6.58,34-19.94,50.8-40C553,585,561.07,568.06,564,550.82c2.91,17.24,11,34.21,19.48,44.34,16.72,20,36.8,33.38,50.73,40Zm91.49-41.44c-15-18-27.88-56.27-14.41-79.28C578,502,587.47,497.65,596,497.65a25.18,25.18,0,0,1,17.8,7.34c8,8.38,6.33,28.21-9,28.92-.33,0-.65,0-1,0a14.74,14.74,0,0,1-3.38-.39,7.68,7.68,0,0,1-5-10.48c2.82-6.33,7.84-4.29,9-3.73-1-2-4.09-2.73-6.79-1.66a10.45,10.45,0,0,0-4.41,3.54,9.56,9.56,0,0,0-1.45,2.22,21.81,21.81,0,0,0-1.94,5,.19.19,0,0,0,0,.08c-3.41,11.77-3.77,35.6,25.35,59.8,35.3,29.35,68.63,31.87,75.75,32.06l9.72,14.77H639.72C625.79,629.53,603.17,615.2,585.19,593.71Z"/></g></svg>